<mxfile host="app.diagrams.net" modified="2024-01-25T05:28:30.746Z" agent="Mozilla/5.0 (Windows NT 10.0; Win64; x64) AppleWebKit/537.36 (KHTML, like Gecko) Chrome/120.0.0.0 Safari/537.36" etag="N_bETkbG3Q2x4FMM1jvu" version="23.0.1" type="github">
  <diagram name="페이지-1" id="RyW2sdWnG1Ou0U7GGUi2">
    <mxGraphModel dx="794" dy="724" grid="1" gridSize="10" guides="1" tooltips="1" connect="1" arrows="1" fold="1" page="1" pageScale="1" pageWidth="827" pageHeight="1169" math="0" shadow="0">
      <root>
        <mxCell id="0" />
        <mxCell id="1" parent="0" />
        <mxCell id="K70THNqEhpmeUqJIm1rK-3" value="Actor" style="shape=umlActor;verticalLabelPosition=bottom;verticalAlign=top;html=1;outlineConnect=0;" vertex="1" parent="1">
          <mxGeometry x="70" y="30" width="30" height="60" as="geometry" />
        </mxCell>
        <mxCell id="K70THNqEhpmeUqJIm1rK-4" value="로그인페이지" style="rounded=1;whiteSpace=wrap;html=1;" vertex="1" parent="1">
          <mxGeometry x="25" y="160" width="120" height="60" as="geometry" />
        </mxCell>
        <mxCell id="K70THNqEhpmeUqJIm1rK-6" value="" style="endArrow=classic;html=1;rounded=0;exitX=0.5;exitY=1;exitDx=0;exitDy=0;" edge="1" parent="1" source="K70THNqEhpmeUqJIm1rK-4">
          <mxGeometry width="50" height="50" relative="1" as="geometry">
            <mxPoint x="84.5" y="280" as="sourcePoint" />
            <mxPoint x="85" y="290" as="targetPoint" />
          </mxGeometry>
        </mxCell>
        <mxCell id="K70THNqEhpmeUqJIm1rK-7" value="" style="rhombus;whiteSpace=wrap;html=1;" vertex="1" parent="1">
          <mxGeometry x="45" y="290" width="80" height="80" as="geometry" />
        </mxCell>
        <mxCell id="K70THNqEhpmeUqJIm1rK-9" value="" style="endArrow=classic;html=1;rounded=0;" edge="1" parent="1">
          <mxGeometry width="50" height="50" relative="1" as="geometry">
            <mxPoint x="84.5" y="120" as="sourcePoint" />
            <mxPoint x="85" y="160" as="targetPoint" />
            <Array as="points">
              <mxPoint x="85" y="90" />
            </Array>
          </mxGeometry>
        </mxCell>
        <mxCell id="K70THNqEhpmeUqJIm1rK-11" value="" style="endArrow=classic;html=1;rounded=0;exitX=1;exitY=0.5;exitDx=0;exitDy=0;" edge="1" parent="1">
          <mxGeometry width="50" height="50" relative="1" as="geometry">
            <mxPoint x="230" y="329.5" as="sourcePoint" />
            <mxPoint x="280" y="330" as="targetPoint" />
          </mxGeometry>
        </mxCell>
        <mxCell id="K70THNqEhpmeUqJIm1rK-12" value="" style="endArrow=classic;html=1;rounded=0;exitX=0.5;exitY=1;exitDx=0;exitDy=0;" edge="1" parent="1">
          <mxGeometry width="50" height="50" relative="1" as="geometry">
            <mxPoint x="84.5" y="450" as="sourcePoint" />
            <mxPoint x="85" y="500" as="targetPoint" />
          </mxGeometry>
        </mxCell>
        <mxCell id="K70THNqEhpmeUqJIm1rK-13" value="로그인 실패" style="text;html=1;align=center;verticalAlign=middle;resizable=0;points=[];autosize=1;strokeColor=none;fillColor=none;" vertex="1" parent="1">
          <mxGeometry x="40" y="420" width="90" height="30" as="geometry" />
        </mxCell>
        <mxCell id="K70THNqEhpmeUqJIm1rK-14" value="" style="endArrow=none;html=1;rounded=0;exitX=1;exitY=0.5;exitDx=0;exitDy=0;" edge="1" parent="1" source="K70THNqEhpmeUqJIm1rK-7">
          <mxGeometry width="50" height="50" relative="1" as="geometry">
            <mxPoint x="120" y="340" as="sourcePoint" />
            <mxPoint x="160" y="330" as="targetPoint" />
          </mxGeometry>
        </mxCell>
        <mxCell id="K70THNqEhpmeUqJIm1rK-15" value="" style="endArrow=none;html=1;rounded=0;entryX=0.5;entryY=1;entryDx=0;entryDy=0;" edge="1" parent="1" target="K70THNqEhpmeUqJIm1rK-7">
          <mxGeometry width="50" height="50" relative="1" as="geometry">
            <mxPoint x="85" y="420" as="sourcePoint" />
            <mxPoint x="85" y="380" as="targetPoint" />
          </mxGeometry>
        </mxCell>
        <mxCell id="K70THNqEhpmeUqJIm1rK-16" value="" style="shape=sumEllipse;perimeter=ellipsePerimeter;whiteSpace=wrap;html=1;backgroundOutline=1;" vertex="1" parent="1">
          <mxGeometry x="75" y="510" width="20" height="20" as="geometry" />
        </mxCell>
        <mxCell id="K70THNqEhpmeUqJIm1rK-17" value="로그인 성공" style="text;html=1;align=center;verticalAlign=middle;resizable=0;points=[];autosize=1;strokeColor=none;fillColor=none;" vertex="1" parent="1">
          <mxGeometry x="150" y="315" width="90" height="30" as="geometry" />
        </mxCell>
        <mxCell id="K70THNqEhpmeUqJIm1rK-18" value="메인 페이지" style="rounded=1;whiteSpace=wrap;html=1;" vertex="1" parent="1">
          <mxGeometry x="294" y="300" width="120" height="60" as="geometry" />
        </mxCell>
      </root>
    </mxGraphModel>
  </diagram>
</mxfile>
